<svg width="32" height="30" viewBox="0 0 32 30" fill="none" xmlns="http://www.w3.org/2000/svg">
<path d="M30.5292 10.7742H23.3527L18.3078 1.04688C18.1269 0.698132 17.8211 0.440694 17.4466 0.321944C17.0721 0.203194 16.6738 0.237444 16.3251 0.418319C16.2038 0.481194 16.0953 0.558944 16 0.647882C15.9046 0.559006 15.7961 0.481194 15.6749 0.418319C15.3262 0.237444 14.9278 0.203256 14.5533 0.321944C14.1788 0.440631 13.873 0.698132 13.6921 1.04688L8.3745 11.3001C8.19363 11.6489 8.15938 12.0472 8.27812 12.4217C8.31862 12.5495 8.3765 12.6686 8.4475 12.7782H1.47075C1.17669 12.7782 0.9375 12.539 0.9375 12.2449C0.9375 11.9509 1.17675 11.7117 1.47075 11.7117H6.81481C7.07369 11.7117 7.28356 11.5019 7.28356 11.2429C7.28356 10.9841 7.07369 10.7742 6.81481 10.7742H1.47075C0.659812 10.7742 0 11.434 0 12.2449C0 12.9175 0.453875 13.4856 1.07131 13.6601L3.78625 28.1395C3.96094 29.0715 4.776 29.748 5.72425 29.748H26.2758C27.2241 29.748 28.0391 29.0715 28.2138 28.1395L30.9287 13.6601C31.5461 13.4856 32 12.9175 32 12.2449C32 11.4339 31.3402 10.7742 30.5292 10.7742ZM16.7567 1.25063C16.8831 1.18507 17.0276 1.17263 17.1633 1.21569C17.2991 1.25869 17.41 1.35207 17.4756 1.47851L22.7932 11.7318C22.8588 11.8583 22.8712 12.0027 22.8281 12.1384C22.7851 12.2743 22.6917 12.3851 22.5653 12.4507C22.4389 12.5163 22.2944 12.5287 22.1586 12.4857C22.0228 12.4427 21.9119 12.3493 21.8464 12.2229L16.5288 1.96951C16.3934 1.70851 16.4957 1.38601 16.7567 1.25063ZM22.9987 13.7158L22.5551 18.2894H16.4688V13.7158H22.9987ZM16 2.98613L21.0142 12.6544C21.0364 12.6971 21.0605 12.7384 21.0863 12.7782H10.9137C10.9395 12.7384 10.9636 12.6971 10.9858 12.6544L11.4747 11.7118H18.6094C18.8682 11.7118 19.0781 11.5019 19.0781 11.243C19.0781 10.9841 18.8682 10.7743 18.6094 10.7743H11.9609L16 2.98613ZM9.20675 11.7318L14.5244 1.47844C14.59 1.35201 14.7009 1.25863 14.8367 1.21563C14.8898 1.19876 14.9443 1.19044 14.9984 1.19044C15.0828 1.19044 15.1664 1.21069 15.2433 1.25057C15.5043 1.38601 15.6066 1.70844 15.4712 1.96944L10.1535 12.2228C10.0879 12.3492 9.97706 12.4426 9.84125 12.4856C9.70556 12.5286 9.56112 12.5162 9.43462 12.4506C9.30819 12.385 9.21481 12.2741 9.17181 12.1383C9.12875 12.0026 9.14119 11.8583 9.20675 11.7318ZM2.03556 13.7158H8.05944L8.503 18.2894H2.89313L2.03556 13.7158ZM3.06894 19.2268H8.59394L9.0375 23.8004H3.92644L3.06894 19.2268ZM5.72419 28.8105C5.22681 28.8105 4.79931 28.4557 4.70769 27.9668L4.10225 24.7379H9.12838L9.52337 28.8105H5.72419ZM15.5312 28.8105H10.4652L10.0702 24.7379H15.5312V28.8105ZM15.5312 23.8004H9.97931L9.53575 19.2268H15.5312V23.8004ZM15.5312 18.2894H9.44487L9.00131 13.7158H15.5312V18.2894ZM21.5348 28.8105H16.4688V24.7379H21.9298L21.5348 28.8105ZM22.0207 23.8005H16.4688V19.2269H22.4643L22.0207 23.8005ZM27.2923 27.9668C27.2007 28.4557 26.7731 28.8105 26.2757 28.8105H22.4766L22.8716 24.7379H27.8978L27.2923 27.9668ZM28.0736 23.8005H22.9626L23.4061 19.2269H28.9311L28.0736 23.8005ZM29.1069 18.2893H23.4971L23.9406 13.7157H29.9644L29.1069 18.2893ZM30.5292 12.7783H30.5216C30.5213 12.7783 30.5211 12.7783 30.5208 12.7783H23.5525C23.6235 12.6687 23.6813 12.5496 23.7219 12.4218C23.7958 12.1884 23.8104 11.9458 23.7671 11.7118H30.5292C30.8233 11.7118 31.0625 11.951 31.0625 12.245C31.0625 12.539 30.8232 12.7783 30.5292 12.7783Z" fill="#688800"/>
</svg>
