<svg width="24" height="24" viewBox="0 0 24 24" fill="none" xmlns="http://www.w3.org/2000/svg">
<g clip-path="url(#clip0_1_394)">
<path d="M20.482 3.51471C18.2159 1.24823 15.2029 0 11.9982 0C8.79327 0 5.78027 1.24823 3.51416 3.51471C1.24805 5.78119 0 8.79474 0 12C0 14.2051 0.603333 16.3612 1.74463 18.2349C1.8457 18.4008 2.06213 18.4534 2.22784 18.3523C2.39374 18.2512 2.44611 18.035 2.34521 17.8693C1.27094 16.1058 0.703125 14.076 0.703125 12C0.703125 8.98242 1.87793 6.14557 4.01129 4.01184C6.14465 1.87811 8.98114 0.703125 11.9982 0.703125C15.015 0.703125 17.8515 1.87811 19.9849 4.01184C22.1182 6.14557 23.293 8.9826 23.293 12C23.293 15.0174 22.1182 17.8544 19.9849 19.9882C17.8515 22.1219 15.015 23.2969 11.9982 23.2969C8.53455 23.2969 5.31042 21.7399 3.15234 19.0254C3.03149 18.8734 2.81012 18.8481 2.65833 18.969C2.50635 19.0898 2.48108 19.311 2.60193 19.463C4.89423 22.3464 8.31903 24 11.9982 24C15.2029 24 18.2159 22.7518 20.482 20.4853C22.7481 18.2188 23.9962 15.2053 23.9962 12C23.9962 8.79474 22.7481 5.78119 20.482 3.51471Z" fill="#688800"/>
<path d="M10.0715 9.9662L11.2778 9.05781C11.4671 8.91517 11.566 8.68116 11.5361 8.44715C11.4951 8.12599 11.4766 7.79878 11.4812 7.4745C11.4909 6.77943 10.9643 6.1598 10.2824 6.06385L9.23138 5.91572C8.51983 5.81556 7.8612 6.00599 7.37688 6.45222C6.89184 6.89918 6.64776 7.54097 6.68969 8.25947C6.75304 9.3495 6.96929 10.4249 7.3322 11.4561C8.14281 13.7596 9.62286 15.7254 11.6123 17.1412C12.5027 17.7749 13.4765 18.2801 14.5065 18.6423C14.7822 18.7393 15.0589 18.7875 15.3281 18.7875C15.7212 18.7875 16.0982 18.6846 16.4326 18.4813C16.9954 18.1391 17.3607 17.5587 17.4609 16.8469L17.6059 15.8175C17.7022 15.1349 17.2441 14.4332 16.5849 14.2536C16.2756 14.1694 15.9698 14.0626 15.6758 13.9363C15.4522 13.8403 15.1924 13.872 14.9977 14.0187L13.801 14.9199C13.6959 14.999 13.5529 15.0032 13.4452 14.9304C12.7659 14.4713 12.1528 13.9194 11.6227 13.2901C11.4977 13.1416 11.2758 13.1226 11.1274 13.2476C10.9789 13.3727 10.9599 13.5944 11.085 13.7429C11.6568 14.4221 12.3184 15.0175 13.0515 15.513C13.4078 15.754 13.8791 15.7413 14.2239 15.4815L15.4108 14.5878C15.7311 14.7246 16.0638 14.8403 16.4 14.932C16.7184 15.0188 16.9566 15.3869 16.9097 15.7196L16.7647 16.7488C16.6944 17.2479 16.4467 17.6499 16.0673 17.8806C15.6873 18.1115 15.2158 18.1464 14.7396 17.9789C13.7718 17.6385 12.8569 17.1639 12.0199 16.5684C10.1493 15.2371 8.75768 13.3886 7.99541 11.2227C7.65447 10.2535 7.45122 9.24275 7.39153 8.21846C7.36223 7.71437 7.52611 7.2707 7.85314 6.96931C8.1798 6.66847 8.63409 6.54158 9.13323 6.61189L10.1843 6.76002C10.5109 6.80598 10.7828 7.12879 10.7781 7.46461C10.7733 7.81324 10.7925 8.16499 10.8356 8.51069L9.64867 9.40443C9.30389 9.66407 9.16143 10.1134 9.29436 10.5227C9.49944 11.1531 9.77154 11.765 10.103 12.3413C10.1998 12.5095 10.4148 12.5674 10.5831 12.4707C10.7513 12.3739 10.8092 12.1589 10.7125 11.9906C10.4051 11.4565 10.1529 10.8896 9.96325 10.3053C9.92297 10.1815 9.96655 10.0453 10.0715 9.9662Z" fill="#688800"/>
</g>
<defs>
<clipPath id="clip0_1_394">
<rect width="24" height="24" fill="white"/>
</clipPath>
</defs>
</svg>
