<svg width="24" height="24" viewBox="0 0 24 24" fill="none" xmlns="http://www.w3.org/2000/svg">
<g clip-path="url(#clip0_1_378)">
<path d="M20.4853 3.51473C18.2188 1.24819 15.2053 0 12 0C8.79473 0 5.78123 1.24819 3.51473 3.51473C1.24819 5.78123 0 8.79473 0 12C0 15.2053 1.24819 18.2188 3.51473 20.4853C5.78123 22.7518 8.79473 24 12 24C15.2053 24 18.2188 22.7518 20.4853 20.4853C22.7518 18.2187 24 15.2053 24 12C24 8.79473 22.7518 5.78123 20.4853 3.51473ZM12 23.2421C5.80106 23.2421 0.757875 18.1989 0.757875 12C0.757875 5.80106 5.80106 0.757875 12 0.757875C18.1989 0.757875 23.2421 5.80106 23.2421 12C23.2421 18.1989 18.1989 23.2421 12 23.2421Z" fill="#688800"/>
<path d="M16.3052 4.54785H7.69474C5.95924 4.54785 4.54736 5.95977 4.54736 7.69523V16.3058C4.54736 18.0412 5.95929 19.4531 7.69474 19.4531H16.3053C18.0407 19.4531 19.4526 18.0412 19.4526 16.3057V7.69523C19.4526 5.95973 18.0407 4.54785 16.3052 4.54785ZM18.6947 16.3057C18.6947 17.6233 17.6228 18.6952 16.3052 18.6952H7.69474C6.37718 18.6952 5.30524 17.6233 5.30524 16.3057V7.69523C5.30524 6.37766 6.37718 5.30573 7.69474 5.30573H16.3053C17.6228 5.30573 18.6948 6.37766 18.6948 7.69523V16.3057H18.6947Z" fill="#688800"/>
<path d="M15.9093 11.7766C15.7972 9.78291 14.1748 8.17898 12.18 8.08903C9.87803 7.98525 7.98302 9.88116 8.08816 12.1834C8.17933 14.1784 9.78457 15.8 11.7785 15.9104C12.62 15.9571 13.408 15.7357 14.0662 15.3248C14.2712 15.1967 14.3046 14.9116 14.1337 14.7407C14.1319 14.7389 14.1301 14.7371 14.1283 14.7353C14.0038 14.6108 13.8106 14.592 13.6609 14.685C13.1692 14.9905 12.5879 15.165 11.966 15.1585C10.2103 15.14 8.79372 13.6658 8.84317 11.9107C8.89291 10.1444 10.4001 8.73628 12.2021 8.8492C13.7549 8.94651 15.0188 10.1847 15.1467 11.7353C15.1988 12.3669 15.063 12.9637 14.79 13.477C14.7119 13.624 14.736 13.8043 14.8537 13.922C14.8556 13.9239 14.8576 13.9259 14.8595 13.9278C15.0363 14.1046 15.3355 14.0631 15.4536 13.8427C15.7809 13.2321 15.9514 12.5256 15.9093 11.7766Z" fill="#688800"/>
<path d="M16.0423 8.46345C16.6004 8.46345 17.0528 8.01102 17.0528 7.45291C17.0528 6.89481 16.6004 6.44238 16.0423 6.44238C15.4842 6.44238 15.0317 6.89481 15.0317 7.45291C15.0317 8.01102 15.4842 8.46345 16.0423 8.46345Z" fill="#688800"/>
</g>
<defs>
<clipPath id="clip0_1_378">
<rect width="24" height="24" fill="white"/>
</clipPath>
</defs>
</svg>
