<svg width="32" height="32" viewBox="0 0 32 32" fill="none" xmlns="http://www.w3.org/2000/svg">
<path d="M25.9062 11.7824H23.8916L24.4986 4.81303C24.4997 4.8004 24.4999 4.78796 24.5 4.77553C24.5 4.77446 24.5001 4.77346 24.5001 4.7724C24.5001 4.77221 24.5001 4.77209 24.5001 4.7719C24.5001 4.58221 24.3857 4.41502 24.2175 4.34234C24.216 4.34171 24.2147 4.34096 24.2132 4.34034C24.2028 4.33596 24.192 4.33221 24.1811 4.32859C24.177 4.32727 24.1732 4.32565 24.1691 4.3244C24.1602 4.32171 24.1511 4.31959 24.142 4.3174C24.1357 4.3159 24.1295 4.31409 24.1231 4.31284C24.1152 4.31127 24.1069 4.31027 24.0988 4.30909C24.0912 4.30796 24.0837 4.30665 24.076 4.30596C24.0747 4.30584 24.0735 4.30559 24.0722 4.30546C24.0639 4.30471 24.0558 4.30484 24.0476 4.30452C24.0421 4.30434 24.0367 4.30371 24.0312 4.30371H24.0253C24.0248 4.30371 24.0243 4.30371 24.0239 4.30371H14.4382C14.1794 4.30371 13.9694 4.51371 13.9694 4.77246C13.9694 5.03059 14.1794 5.24121 14.4382 5.24121H23.5203L22.5874 15.9522C22.5873 15.953 22.5873 15.9538 22.5872 15.9546L22.3518 18.6572H6.06365L6.33609 15.8448H9.43741C9.69635 15.8448 9.90616 15.6349 9.90616 15.3761C9.90616 15.1172 9.69635 14.9073 9.43741 14.9073H6.42696L7.00222 8.97011H11.9382C12.1971 8.97011 12.4069 8.76023 12.4069 8.50135C12.4069 8.24248 12.1971 8.0326 11.9382 8.0326H7.09309L7.36359 5.24121H12.5632C12.8213 5.24121 13.0319 5.03059 13.0319 4.77246C13.0319 4.51371 12.8213 4.30371 12.5632 4.30371H6.93815C6.9379 4.30371 6.93772 4.30377 6.93746 4.30377C6.71728 4.30371 6.52628 4.45871 6.48009 4.67359C6.47978 4.67515 6.47921 4.67665 6.4789 4.67821C6.47653 4.6899 6.47496 4.70184 6.4734 4.71384C6.47296 4.71765 6.47215 4.72128 6.47178 4.72509C6.47171 4.72584 6.47153 4.72653 6.47146 4.72728L6.15121 8.0326H0.468752C0.209813 8.0326 0 8.24248 0 8.50135C0 8.76023 0.209813 8.97011 0.468752 8.97011H6.06034L5.48508 14.9073H3.81264C3.5537 14.9073 3.34389 15.1172 3.34389 15.3761C3.34389 15.6349 3.5537 15.8448 3.81264 15.8448H5.39427L5.08102 19.0774C5.08096 19.0779 5.08096 19.0784 5.08089 19.0788L4.59658 24.0775C4.59652 24.0781 4.59646 24.0787 4.59639 24.0792L4.59621 24.081C4.59558 24.0875 4.59564 24.0939 4.59527 24.1004C4.59483 24.109 4.59396 24.1175 4.59396 24.1262C4.59396 24.1266 4.59402 24.127 4.59402 24.1274C4.59402 24.1395 4.59489 24.1514 4.59577 24.1632C4.59614 24.167 4.59602 24.1709 4.59646 24.1747C4.59771 24.1868 4.59977 24.1987 4.60196 24.2106C4.60258 24.2141 4.60289 24.2177 4.60358 24.2211C4.60539 24.2301 4.60796 24.2388 4.61033 24.2476C4.61196 24.2538 4.61327 24.2601 4.61514 24.2662C4.61571 24.2679 4.61646 24.2695 4.61696 24.2712C4.63964 24.341 4.67814 24.4036 4.72839 24.4547C4.72933 24.4557 4.73008 24.4567 4.73102 24.4576C4.73602 24.4626 4.74146 24.4671 4.74671 24.4719C4.77902 24.5015 4.81552 24.5266 4.85546 24.5463C4.86377 24.5504 4.87196 24.5547 4.88046 24.5583C4.88302 24.5594 4.88577 24.5602 4.88839 24.5612C4.90014 24.5659 4.91196 24.5704 4.92414 24.5742C4.92527 24.5745 4.92633 24.5747 4.92746 24.575C4.94133 24.5792 4.95533 24.5828 4.96964 24.5857C4.97152 24.5861 4.97346 24.5862 4.97527 24.5866C4.98889 24.5892 5.00258 24.5914 5.01652 24.5927C5.01683 24.5927 5.01708 24.5928 5.01739 24.5929C5.03277 24.5944 5.04802 24.5951 5.06315 24.5951C5.06333 24.5951 5.06358 24.595 5.06383 24.595H7.15059C7.38103 26.3421 8.87885 27.6952 10.6879 27.6952C12.4969 27.6952 13.9947 26.3421 14.2251 24.595H21.7438C21.9743 26.3421 23.4721 27.6952 25.2811 27.6952C27.09 27.6952 28.588 26.3421 28.8185 24.595H30.9057C30.9061 24.595 30.9064 24.5951 30.9067 24.5951C30.9224 24.5951 30.9377 24.5942 30.953 24.5927C30.9557 24.5924 30.9584 24.5919 30.9611 24.5915C30.9733 24.5901 30.9854 24.5884 30.9973 24.586C31.0024 24.585 31.0074 24.5837 31.0124 24.5825C31.0216 24.5804 31.0309 24.5781 31.0399 24.5754C31.046 24.5736 31.0519 24.5715 31.0579 24.5694C31.0656 24.5668 31.0733 24.564 31.0809 24.561C31.0874 24.5584 31.0936 24.5556 31.0999 24.5528C31.1067 24.5496 31.1136 24.5464 31.1203 24.5429C31.1267 24.5397 31.1328 24.5363 31.1389 24.5328C31.1454 24.529 31.1517 24.5252 31.1581 24.5212C31.1639 24.5174 31.1698 24.5136 31.1754 24.5096C31.1818 24.5052 31.1879 24.5005 31.1941 24.4957C31.1992 24.4917 31.2044 24.4877 31.2094 24.4834C31.2158 24.478 31.2219 24.4723 31.228 24.4665C31.2322 24.4624 31.2367 24.4584 31.2408 24.4542C31.2473 24.4475 31.2535 24.4405 31.2597 24.4335C31.263 24.4297 31.2664 24.426 31.2696 24.4221C31.2765 24.4136 31.2827 24.4049 31.289 24.396C31.2911 24.393 31.2935 24.3901 31.2956 24.387C31.3032 24.3755 31.3104 24.3638 31.317 24.3517C31.3175 24.3509 31.318 24.3502 31.3183 24.3494C31.3254 24.3364 31.3319 24.3231 31.3377 24.3094C31.3393 24.3054 31.3406 24.3014 31.3421 24.2974C31.3459 24.2877 31.3497 24.278 31.3529 24.268C31.3549 24.2615 31.3564 24.2548 31.3582 24.2482C31.3603 24.2404 31.3625 24.2327 31.3642 24.2247C31.3658 24.2177 31.3668 24.2104 31.368 24.2032C31.3691 24.1969 31.3704 24.1907 31.3712 24.1843C31.3911 24.025 31.7582 21.0801 31.9221 19.1758C31.9223 19.174 31.9224 19.1721 31.9226 19.1703C31.9698 18.6214 32 18.1591 32 17.8761C32 14.5161 29.2664 11.7824 25.9062 11.7824ZM23.8099 12.72H25.7276L25.4827 15.5323H23.565L23.8099 12.72ZM10.688 26.7577C9.23697 26.7577 8.05647 25.5772 8.05647 24.1262C8.05647 22.6752 9.23704 21.4947 10.688 21.4947C12.139 21.4947 13.3196 22.6752 13.3196 24.1262C13.3196 25.5772 12.139 26.7577 10.688 26.7577ZM25.2811 26.7577C23.8301 26.7577 22.6497 25.5772 22.6497 24.1262C22.6497 22.6752 23.8302 21.4947 25.2811 21.4947C26.7322 21.4947 27.9127 22.6752 27.9127 24.1262C27.9127 25.5772 26.7322 26.7577 25.2811 26.7577ZM30.4916 23.6572H28.8186C28.5882 21.91 27.0904 20.5568 25.2812 20.5568C23.4722 20.5568 21.9743 21.9101 21.744 23.6572H14.2253C13.9949 21.91 12.4971 20.5568 10.688 20.5568C8.87897 20.5568 7.38103 21.9101 7.15065 23.6572H5.57915L5.97284 19.5945H22.7813V19.5947C22.7816 19.5947 22.7818 19.5947 22.782 19.5947C22.7977 19.5947 22.8133 19.5938 22.8287 19.5923C22.8315 19.592 22.8343 19.5914 22.8372 19.591C22.8495 19.5896 22.8617 19.5878 22.8737 19.5855C22.8788 19.5844 22.8839 19.583 22.889 19.5817C22.8984 19.5795 22.9078 19.5773 22.9169 19.5745C22.9232 19.5726 22.9291 19.5704 22.9352 19.5683C22.943 19.5655 22.9509 19.5628 22.9585 19.5597C22.9651 19.557 22.9714 19.554 22.9778 19.551C22.9847 19.5478 22.9917 19.5446 22.9983 19.5411C23.0047 19.5378 23.011 19.5341 23.0173 19.5305C23.0237 19.5268 23.0301 19.523 23.0363 19.519C23.0424 19.515 23.0482 19.5109 23.054 19.5068C23.0602 19.5024 23.0662 19.4979 23.0722 19.4932C23.0775 19.4889 23.0828 19.4845 23.0881 19.4799C23.094 19.4748 23.0998 19.4695 23.1055 19.4641C23.1102 19.4595 23.115 19.4548 23.1196 19.45C23.1252 19.4441 23.1307 19.4381 23.136 19.4319C23.1402 19.427 23.1443 19.4221 23.1483 19.4171C23.1535 19.4106 23.1585 19.4038 23.1633 19.397C23.167 19.3919 23.1706 19.3868 23.1741 19.3815C23.1787 19.3745 23.183 19.3672 23.1872 19.3598C23.1904 19.3543 23.1937 19.3488 23.1965 19.3432C23.2005 19.3358 23.2038 19.3283 23.2074 19.3208C23.2102 19.3147 23.213 19.3088 23.2155 19.3025C23.2185 19.2951 23.2211 19.2876 23.2238 19.28C23.2261 19.2733 23.2285 19.2666 23.2306 19.2598C23.2327 19.2525 23.2343 19.2451 23.2362 19.2377C23.238 19.2303 23.24 19.2229 23.2415 19.2153C23.2429 19.208 23.2438 19.2005 23.2449 19.193C23.246 19.1852 23.2473 19.1776 23.2481 19.1697C23.2482 19.1686 23.2485 19.1675 23.2485 19.1664L23.4835 16.4695H25.9061C27.3423 16.4695 27.99 17.2136 28.6757 18.0015C29.2416 18.6516 29.8732 19.3769 30.947 19.5538C30.8106 20.9957 30.5902 22.8467 30.4916 23.6572ZM31.0271 18.6145C30.3306 18.4725 29.902 17.9828 29.3828 17.3863C28.7335 16.6403 27.9408 15.73 26.4212 15.5604L26.6637 12.7761C29.149 13.1437 31.0625 15.2904 31.0625 17.8763C31.0625 18.052 31.0494 18.3072 31.0271 18.6145Z" fill="#688800"/>
<path d="M10.6885 22.4082C9.74079 22.4082 8.96973 23.1792 8.96973 24.127C8.96973 25.0747 9.74079 25.8457 10.6885 25.8457C11.6362 25.8457 12.4072 25.0747 12.4072 24.127C12.4072 23.1793 11.6362 22.4082 10.6885 22.4082ZM10.6885 24.9082C10.2577 24.9082 9.90723 24.5578 9.90723 24.127C9.90723 23.6961 10.2577 23.3457 10.6885 23.3457C11.1193 23.3457 11.4697 23.6961 11.4697 24.127C11.4697 24.5578 11.1192 24.9082 10.6885 24.9082Z" fill="#688800"/>
<path d="M25.2813 22.4082C24.3336 22.4082 23.5625 23.1792 23.5625 24.127C23.5625 25.0747 24.3336 25.8457 25.2813 25.8457C26.2289 25.8457 27 25.0747 27 24.127C27 23.1793 26.2289 22.4082 25.2813 22.4082ZM25.2813 24.9082C24.8504 24.9082 24.5 24.5578 24.5 24.127C24.5 23.6961 24.8504 23.3457 25.2813 23.3457C25.7121 23.3457 26.0625 23.6961 26.0625 24.127C26.0625 24.5578 25.7121 24.9082 25.2813 24.9082Z" fill="#688800"/>
<path d="M4.43714 11.7832H2.14551C1.88657 11.7832 1.67676 11.993 1.67676 12.2518C1.67676 12.5105 1.88657 12.7203 2.14551 12.7203H4.43714C4.69608 12.7203 4.9059 12.5105 4.9059 12.2518C4.9059 11.993 4.69608 11.7832 4.43714 11.7832Z" fill="#688800"/>
</svg>
