<svg width="32" height="32" viewBox="0 0 32 32" fill="none" xmlns="http://www.w3.org/2000/svg">
<path d="M30.5292 28.0563H29.996V14.1499C31.2001 13.375 32 12.024 32 10.4887C32 10.4072 31.9787 10.327 31.9382 10.2562L28.2187 3.74692C27.9574 3.28986 27.4681 3.00586 26.9417 3.00586H5.05831C4.53187 3.00586 4.04256 3.2898 3.78131 3.74692L0.06175 10.2562C0.0213125 10.327 0 10.4072 0 10.4887C0 12.024 0.799875 13.375 2.004 14.1499V28.0563H1.47075C1.21187 28.0563 1.002 28.2662 1.002 28.5251C1.002 28.7839 1.21187 28.9938 1.47075 28.9938H30.5292C30.7882 28.9938 30.998 28.7839 30.998 28.5251C30.998 28.2662 30.7881 28.0563 30.5292 28.0563ZM0.969813 10.9575H2.47256C2.73144 10.9575 2.94131 10.7476 2.94131 10.4887C2.94131 10.2299 2.73144 10.02 2.47256 10.02H1.2765L4.59531 4.21205C4.69006 4.0463 4.86744 3.94336 5.05831 3.94336H26.9417C27.1326 3.94336 27.31 4.0463 27.4047 4.21205L30.7234 10.02H29.5271C29.2682 10.02 29.0584 10.2299 29.0584 10.4887C29.0584 10.7476 29.2682 10.9575 29.5271 10.9575H31.0301C30.8009 12.619 29.3719 13.9028 27.6484 13.9028C25.9249 13.9028 24.4966 12.6189 24.2673 10.9575H27.5233C27.7822 10.9575 27.9921 10.7476 27.9921 10.4887C27.9921 10.2299 27.7822 10.02 27.5233 10.02H4.47694C4.21806 10.02 4.00819 10.2299 4.00819 10.4887C4.00819 10.7476 4.21806 10.9575 4.47694 10.9575H7.73263C7.50338 12.6189 6.07494 13.9028 4.35156 13.9028C2.62806 13.9028 1.199 12.619 0.969813 10.9575ZM23.2639 10.9575C23.0346 12.6189 21.6062 13.9028 19.8828 13.9028C18.1594 13.9028 16.731 12.6189 16.5018 10.9575H23.2639ZM15.4983 10.9575C15.269 12.6189 13.8406 13.9028 12.1172 13.9028C10.3938 13.9028 8.96537 12.6189 8.73612 10.9575H15.4983ZM26.5534 28.0564H21.4788V26.4888H26.5534V28.0564ZM26.5534 25.5513H21.4788V16.9696H26.5534V25.5513ZM29.0585 28.0564H27.4909V16.5009C27.4909 16.242 27.2811 16.0321 27.0222 16.0321H21.0101C20.7512 16.0321 20.5414 16.242 20.5414 16.5009V28.0563H2.9415V14.6045C3.38406 14.7565 3.85806 14.8403 4.35156 14.8403C6.045 14.8403 7.51556 13.868 8.23438 12.4524C8.95319 13.868 10.4237 14.8403 12.1172 14.8403C13.8106 14.8403 15.2812 13.868 16 12.4524C16.7188 13.868 18.1894 14.8403 19.8828 14.8403C21.5763 14.8403 23.0468 13.868 23.7656 12.4524C24.4844 13.868 25.955 14.8403 27.6484 14.8403C28.1419 14.8403 28.6159 14.7565 29.0585 14.6045V28.0564Z" fill="#688800"/>
<path d="M18.5058 16.0322H4.97852C4.71964 16.0322 4.50977 16.2421 4.50977 16.501V26.0202C4.50977 26.279 4.71964 26.4889 4.97852 26.4889H18.5058C18.7647 26.4889 18.9745 26.279 18.9745 26.0202V16.501C18.9745 16.242 18.7647 16.0322 18.5058 16.0322ZM18.037 25.5514H5.44727V16.9697H18.037V25.5514Z" fill="#688800"/>
</svg>
