<svg width="32" height="32" viewBox="0 0 32 32" fill="none" xmlns="http://www.w3.org/2000/svg">
<g clip-path="url(#clip0_1_262)">
<path d="M30.733 7.05974L16.2038 0.0456172C16.075 -0.0165078 15.925 -0.0165078 15.7962 0.0456172L1.26689 7.05974C1.10489 7.13793 1.00195 7.30199 1.00195 7.48187V24.5162C1.00195 24.6961 1.10489 24.8601 1.26689 24.9383L15.7961 31.9524C15.8605 31.9835 15.9303 31.9991 16 31.9991C16.0696 31.9991 16.1393 31.9835 16.2038 31.9524L30.733 24.9383C30.895 24.8601 30.998 24.6961 30.998 24.5162V7.48193C30.998 7.30193 30.895 7.13799 30.733 7.05974ZM16 0.988305L29.451 7.48187L25.5518 9.36424C25.5271 9.34543 25.5011 9.32805 25.4725 9.31424L12.1128 2.86487L16 0.988305ZM11.0541 3.39487L24.4856 9.87899L21.7347 11.2071L8.30877 4.72555L11.0541 3.39487ZM24.7999 10.7682V15.6774L22.2303 16.9179V12.0087L24.7999 10.7682ZM30.0605 24.2221L16.4687 30.7834V14.7902L19.7108 13.2251C19.9439 13.1125 20.0416 12.8323 19.9291 12.5991C19.8165 12.3661 19.5363 12.2682 19.3031 12.3808L16 13.9755L14.7002 13.348C14.467 13.2353 14.1868 13.3332 14.0743 13.5663C13.9617 13.7994 14.0595 14.0797 14.2926 14.1922L15.5312 14.7902V30.7834L1.93945 24.2219V8.22868L12.2895 13.2252C12.3551 13.257 12.4246 13.272 12.4929 13.272C12.6671 13.272 12.8345 13.1744 12.9153 13.0069C13.0279 12.7738 12.9301 12.4936 12.697 12.381L2.54889 7.48187L7.20545 5.23387L21.2863 12.0316C21.2884 12.0344 21.2907 12.037 21.2928 12.0398V17.6647C21.2928 17.8261 21.3758 17.976 21.5124 18.0618C21.5883 18.1094 21.6748 18.1335 21.7616 18.1335C21.8311 18.1335 21.9008 18.1181 21.9654 18.0869L25.4725 16.3938C25.6345 16.3156 25.7374 16.1516 25.7374 15.9717V10.3157L30.0605 8.22874V24.2221Z" fill="#688800"/>
<path d="M5.80828 22.4052L3.67609 21.3759C3.44284 21.2632 3.16271 21.3611 3.05015 21.5942C2.93759 21.8273 3.03534 22.1076 3.26846 22.2201L5.40065 23.2495C5.46634 23.2812 5.53578 23.2962 5.60409 23.2962C5.77834 23.2962 5.94572 23.1986 6.02653 23.0311C6.13916 22.798 6.04141 22.5178 5.80828 22.4052Z" fill="#688800"/>
<path d="M7.77005 21.1275L3.67849 19.1522C3.4453 19.0396 3.16512 19.1374 3.05255 19.3706C2.94005 19.6037 3.0378 19.884 3.27093 19.9965L7.36249 21.9718C7.42818 22.0035 7.49762 22.0185 7.56593 22.0185C7.74018 22.0185 7.90755 21.9209 7.98837 21.7535C8.10093 21.5202 8.00318 21.24 7.77005 21.1275Z" fill="#688800"/>
</g>
<defs>
<clipPath id="clip0_1_262">
<rect width="32" height="32" fill="white"/>
</clipPath>
</defs>
</svg>
