<svg width="24" height="24" viewBox="0 0 24 24" fill="none" xmlns="http://www.w3.org/2000/svg">
<g id="051-telegram" clip-path="url(#clip0_1_421)">
<g id="Group">
<g id="Group_2">
<path id="Vector" d="M20.4853 3.51473C18.2188 1.24819 15.2053 0 12 0C8.79473 0 5.78123 1.24819 3.51473 3.51473C1.24819 5.78123 0 8.79473 0 12C0 15.2053 1.24819 18.2188 3.51473 20.4853C5.78123 22.7518 8.79473 24 12 24C15.2053 24 18.2188 22.7518 20.4853 20.4853C22.7518 18.2187 24 15.2053 24 12C24 8.79473 22.7518 5.78123 20.4853 3.51473ZM12 23.2421C5.80106 23.2421 0.757875 18.1989 0.757875 12C0.757875 5.80106 5.80106 0.757875 12 0.757875C18.1989 0.757875 23.2421 5.80106 23.2421 12C23.2421 18.1989 18.1989 23.2421 12 23.2421Z" fill="white"/>
</g>
</g>
<g id="Group_3">
<g id="Group_4">
<path id="Vector_2" d="M18.7962 4.62408C18.6799 4.53643 18.5236 4.5233 18.3942 4.59024L3.74152 12.1692C3.61486 12.2347 3.53569 12.3658 3.53663 12.5084C3.53757 12.651 3.61852 12.7809 3.74611 12.8447L7.5788 14.761V18.5581C7.5788 18.6575 7.6126 18.7559 7.68099 18.828C7.75665 18.9078 7.85719 18.9479 7.95779 18.9479C8.02116 18.9479 8.08454 18.932 8.14186 18.9001L12.5267 16.4641L15.8828 17.9024C15.9542 17.933 16.0333 17.9457 16.1097 17.9314C16.2669 17.902 16.3838 17.7816 16.4137 17.6327L17.2628 13.3869C17.3097 13.1524 17.1303 12.9337 16.8912 12.9337C16.7105 12.9336 16.555 13.0611 16.5196 13.2382L15.762 17.026L12.6544 15.6942C12.5468 15.6481 12.4237 15.6544 12.3211 15.7112L8.33672 17.9248V14.5268C8.33672 14.3832 8.25563 14.2521 8.12724 14.1878L4.75154 12.5L18.042 5.62557L16.8886 11.3923C16.8418 11.6268 17.0211 11.8456 17.2603 11.8456C17.4409 11.8456 17.5964 11.718 17.6319 11.5409L18.9398 5.00105C18.9684 4.85827 18.9126 4.71169 18.7962 4.62408Z" fill="white"/>
</g>
</g>
<g id="Group_5">
<g id="Group_6">
<path id="Vector_3" d="M16.3394 7.72318C16.2203 7.57243 16.0071 7.53455 15.8435 7.63538L9.27505 11.6775C9.16298 11.7465 9.09473 11.8687 9.09473 12.0002V16.0424C9.09468 16.2181 9.21552 16.3708 9.38652 16.4112C9.41563 16.4181 9.44483 16.4214 9.47371 16.4214C9.61466 16.4214 9.74732 16.3424 9.81252 16.2119L11.3008 13.2353L16.31 8.2261C16.4459 8.09016 16.4585 7.87402 16.3394 7.72318ZM10.7214 12.7428C10.6927 12.7716 10.6687 12.8048 10.6505 12.8413L9.8526 14.437V12.212L13.4918 9.97243L10.7214 12.7428Z" fill="white"/>
</g>
</g>
</g>
<defs>
<clipPath id="clip0_1_421">
<rect width="24" height="24" fill="white"/>
</clipPath>
</defs>
</svg>
