<svg width="24" height="24" viewBox="0 0 24 24" fill="none" xmlns="http://www.w3.org/2000/svg">
<g id="051-viber" clip-path="url(#clip0_1_431)">
<g id="Group">
<g id="Group_2">
<path id="Vector" d="M20.4853 3.51478C18.2188 1.24819 15.2053 0 12 0C8.79473 0 5.78123 1.24819 3.51473 3.51478C1.24819 5.78123 0 8.79473 0 12C0 15.2053 1.24819 18.2188 3.51473 20.4853C5.78123 22.7518 8.79473 24 12 24C15.2053 24 18.2188 22.7518 20.4853 20.4852C22.7518 18.2188 24 15.2053 24 12C24 8.79473 22.7518 5.78123 20.4853 3.51478ZM12 23.2421C5.80106 23.2421 0.757875 18.1989 0.757875 12C0.757875 5.80106 5.80106 0.757875 12 0.757875C18.1989 0.757875 23.2421 5.80106 23.2421 12C23.2421 18.1989 18.1989 23.2421 12 23.2421Z" fill="white"/>
</g>
</g>
<g id="Group 353">
<g id="Group_3">
<g id="Group_4">
<path id="Vector_2" d="M19.0889 16.9973L18.6786 14.8405C18.6468 14.6734 18.5134 14.542 18.3418 14.5087L15.1153 13.8825C14.975 13.8554 14.8301 13.8979 14.7289 13.9961L13.4041 15.2818C11.1712 14.3145 9.93741 13.1147 8.85057 10.8549L10.1713 9.57317C10.2724 9.47504 10.3163 9.3343 10.2883 9.19817L9.64305 6.06683C9.60869 5.90025 9.47333 5.7708 9.30121 5.73999L7.07886 5.34191C7.02177 5.33155 6.96308 5.33284 6.90647 5.34532C6.3249 5.47353 5.79423 5.75796 5.37188 6.1679C4.6407 6.87755 4.36139 7.91439 4.56435 9.16617C4.65676 9.73607 4.79409 10.3265 4.97257 10.9211C5.03873 11.1413 5.27653 11.2675 5.50297 11.2036C5.72984 11.1395 5.86013 10.909 5.79407 10.6889C5.62569 10.128 5.49635 9.57223 5.4096 9.03703C5.24868 8.04431 5.43953 7.27651 5.97698 6.75493C6.26515 6.47522 6.62225 6.27566 7.01409 6.17453L8.86103 6.50546L9.40461 9.14313L8.03573 10.4715C7.9104 10.5932 7.87535 10.7773 7.94759 10.9344C9.19199 13.6389 10.6518 15.0546 13.3338 16.1574C13.4944 16.2234 13.68 16.1883 13.8032 16.0687L15.172 14.7402L17.8899 15.2678L18.2309 17.0602C18.1267 17.4404 17.921 17.787 17.6329 18.0667C17.0953 18.5882 16.304 18.7734 15.2812 18.6172C13.2363 18.3049 10.3997 17.3415 8.57168 15.5744L8.54533 15.5488C7.7044 14.7295 6.95481 13.5993 6.37778 12.2805C6.28537 12.0695 6.03428 11.9712 5.8168 12.0607C5.59933 12.1503 5.4979 12.394 5.59026 12.6051C6.20966 14.0205 7.02193 15.241 7.94081 16.1365L7.96728 16.162C9.94099 18.0699 12.9708 19.1049 15.1482 19.4374C15.4215 19.4791 15.6846 19.4999 15.9369 19.4999C16.8755 19.4999 17.6613 19.213 18.2377 18.6537C18.6601 18.2437 18.9532 17.7287 19.0852 17.1644C19.0982 17.1096 19.0994 17.0527 19.0889 16.9973Z" fill="white"/>
</g>
</g>
<g id="Group_5">
<g id="Group_6">
<path id="Vector_3" d="M13.1407 8.04297C12.9044 8.04297 12.7129 8.22881 12.7129 8.45814C12.7129 8.68748 12.9044 8.87331 13.1407 8.87331C14.1629 8.87331 14.9944 9.68031 14.9944 10.6723C14.9944 10.8985 15.1891 11.0875 15.4222 11.0875C15.6553 11.0875 15.85 10.8985 15.85 10.6723C15.85 9.22252 14.6346 8.04297 13.1407 8.04297Z" fill="white"/>
</g>
</g>
<g id="Group_7">
<g id="Group_8">
<path id="Vector_4" d="M13.1405 6.27148C12.9727 6.27148 12.8034 6.28049 12.6372 6.29825C12.4024 6.32342 12.2331 6.52857 12.259 6.75646C12.2849 6.98429 12.4961 7.14807 12.7311 7.12358C12.8662 7.10908 13.0039 7.10173 13.1404 7.10173C15.169 7.10173 16.8194 8.70339 16.8194 10.6721C16.8194 10.8046 16.8118 10.9383 16.7969 11.0694C16.771 11.2973 16.9404 11.5025 17.1752 11.5276C17.4069 11.5519 17.6217 11.3858 17.6473 11.1605C17.6656 10.9993 17.6749 10.8349 17.6749 10.6721C17.675 8.2456 15.6409 6.27148 13.1405 6.27148Z" fill="white"/>
</g>
</g>
<g id="Group_9">
<g id="Group_10">
<path id="Vector_5" d="M13.1404 4.5C12.978 4.5 12.8137 4.50606 12.6518 4.51792C12.4162 4.53526 12.2397 4.73462 12.2576 4.96328C12.2755 5.19194 12.4799 5.36286 12.7165 5.34583C12.8569 5.33547 12.9996 5.33029 13.1405 5.33029C16.1755 5.33029 18.6446 7.72657 18.6446 10.672C18.6446 11.0888 18.5951 11.5036 18.4974 11.905C18.4444 12.1225 18.5847 12.3468 18.8074 12.4025C19.0362 12.4598 19.2757 12.3189 19.3299 12.096C19.4429 11.632 19.5001 11.153 19.5001 10.672C19.5002 7.26878 16.6472 4.5 13.1404 4.5Z" fill="white"/>
</g>
</g>
</g>
</g>
<defs>
<clipPath id="clip0_1_431">
<rect width="24" height="24" fill="white"/>
</clipPath>
</defs>
</svg>
