<svg width="104" height="104" viewBox="0 0 104 104" fill="none" xmlns="http://www.w3.org/2000/svg">
<g id="logo">
<g id="&#208;&#161;&#208;&#187;&#208;&#190;&#208;&#185; x0020 1">
<g id="2457033123952">
<g id="Group">
<path id="Vector" d="M44.9085 63.6382V52.685H45.6768V63.6382H44.9085ZM48.9462 29.4501L49.6536 29.7681L49.5614 29.9828L49.4594 30.1924L49.3488 30.3957L49.2295 30.5939L49.1035 30.7869L48.9707 30.9755L48.8318 31.1597L48.688 31.34L48.5399 31.5165L48.3887 31.6898L48.2338 31.86L48.0764 32.0275L47.9178 32.1932L47.758 32.3557L47.5982 32.5169L47.4384 32.6762L47.2798 32.8342L47.1231 32.9909L46.9682 33.1471L46.8164 33.3025L46.6682 33.4574L46.5244 33.6116L46.3855 33.7658L46.2521 33.9193L46.1255 34.0723L46.005 34.2258L45.8919 34.3794L45.7874 34.5329L45.6915 34.6865L45.6042 34.8401L45.5268 34.9943L45.4592 35.1497L44.7536 34.8273L44.8396 34.6304L44.9361 34.4386L45.0418 34.2513L45.1562 34.0684L45.2779 33.89L45.4063 33.7148L45.5409 33.5428L45.6811 33.3733L45.8255 33.2063L45.9743 33.0419L46.1261 32.8794L46.2804 32.7182L46.4371 32.5583L46.5951 32.399L46.7543 32.2403L46.9129 32.0823L47.0708 31.9243L47.2276 31.7656L47.3831 31.607L47.5355 31.4483L47.6855 31.2884L47.8312 31.1285L47.9725 30.9666L48.109 30.8041L48.2393 30.6404L48.3635 30.4754L48.4809 30.3084L48.5909 30.1402L48.6929 29.9707L48.787 29.7987L48.8718 29.6254L48.9474 29.4489L48.9462 29.4501ZM58.1949 36.5955H45.2496V35.7805H58.1949L58.5791 36.1877L58.1949 36.5949V36.5955ZM58.1949 35.7805H58.5791V36.1877L58.1949 35.7805ZM57.8108 49.4099V36.1883H58.5791V49.4099L58.1949 49.817L57.8108 49.4099ZM58.5791 49.4099V49.817H58.1949L58.5791 49.4099ZM45.2496 49.0027H58.1949V49.8177H45.2496L44.8654 49.4105L45.2496 49.0033V49.0027ZM45.2496 49.8177H44.8654V49.4105L45.2496 49.8177ZM45.6338 36.1883V49.4099H44.8654V36.1883L45.2496 35.7812L45.6338 36.1883ZM44.8654 36.1883V35.7812H45.2496L44.8654 36.1883ZM43.3079 69.6079H59.8133V70.4229H43.3079L42.9237 70.0157L43.3079 69.6086V69.6079ZM43.3079 70.4229H42.9237V70.0157L43.3079 70.4229ZM42.9237 34.9866H43.692V36.0781V37.1702V38.263V39.3558V40.4492V41.5432V42.6373V43.7313V44.826V45.9207V47.016V48.1113V49.2066V50.3019V51.3972V52.4932V53.5892V54.6851V55.7811V56.877V57.973V59.0689V60.1649V61.2602V62.3555V63.4508V64.5462V65.6408V66.7355V67.8302V68.9242V70.0183H42.9237V68.9242V67.8302V66.7355V65.6408V64.5462V63.4508V62.3555V61.2602V60.1649V59.0689V57.973V56.877V55.7811V54.6851V53.5892V52.4932V51.3972V50.3019V49.2066V48.1113V47.016V45.9207V44.826V43.7313V42.6373V41.5432V40.4492V39.3558V38.263V37.1702V36.0781V34.9866ZM48.8902 26.3725V27.1875L49.2744 26.7803L49.2547 27.0894L49.2 27.3933L49.1127 27.6909L48.9978 27.9808L48.8576 28.265L48.6954 28.5434L48.514 28.8174L48.3155 29.0882L48.1022 29.3558L47.876 29.6209L47.6388 29.884L47.3929 30.1453L47.1397 30.4053L46.8815 30.664L46.6209 30.9214L46.3584 31.1782L46.0978 31.433L45.8403 31.6873L45.5877 31.9409L45.3424 32.1926L45.1064 32.443L44.882 32.6921L44.6718 32.9393L44.477 33.184L44.2993 33.4261L44.142 33.6645L44.0061 33.8989L43.893 34.1283L43.8045 34.3513L43.7412 34.5686L43.7031 34.7789L43.6902 34.9847H42.9219L42.9409 34.6744L42.9962 34.3698L43.0835 34.0716L43.1985 33.7804L43.3386 33.4956L43.5009 33.2159L43.6822 32.9412L43.8801 32.6704L44.0934 32.4022L44.3202 32.1365L44.5569 31.8733L44.8027 31.6115L45.056 31.3508L45.3141 31.0921L45.5747 30.8347L45.8366 30.5779L46.0972 30.3231L46.3547 30.0688L46.6074 29.8159L46.8526 29.5642L47.0887 29.3138L47.3124 29.0653L47.5232 28.8187L47.7181 28.574L47.8951 28.3325L48.0524 28.0942L48.1883 27.8604L48.3014 27.6316L48.3893 27.4092L48.4526 27.1932L48.4907 26.9836L48.5036 26.7791L48.8878 26.3719L48.8902 26.3725ZM48.5061 26.7797V26.3725H48.8902L48.5061 26.7797ZM54.4117 26.7446H53.6434L54.0275 27.1518H53.703L53.4104 27.1524L53.1467 27.1531L52.9113 27.1537L52.7017 27.1544L52.5155 27.1556L52.3501 27.1569L52.2038 27.1582L52.0748 27.1595L51.9604 27.1607L51.8596 27.162L51.7687 27.1639L51.6857 27.1652L51.6095 27.1671L51.5369 27.1684L51.4675 27.1703L51.3962 27.1722L51.3237 27.1735L51.2456 27.1754L51.162 27.1767L51.0698 27.1786L50.9659 27.1798L50.8498 27.1811L50.7194 27.1824L50.5719 27.1837L50.406 27.1849L50.2185 27.1862L50.0071 27.1869L49.771 27.1875L49.5073 27.1881L49.2141 27.1888H48.889V26.3738H49.2135L49.5061 26.3732L49.7698 26.3725L50.0052 26.3719L50.2148 26.3713L50.4011 26.37L50.5664 26.3687L50.7127 26.3674L50.8424 26.3662L50.9561 26.3649L51.0569 26.3636L51.1479 26.3617L51.2302 26.3604L51.3064 26.3585L51.379 26.3572L51.4484 26.3553L51.5197 26.3534L51.5923 26.3521L51.6697 26.3502L51.7533 26.349L51.8455 26.347L51.9494 26.3458L52.0649 26.3445L52.1952 26.3432L52.3428 26.342L52.5087 26.3407L52.6962 26.3394L52.907 26.3388L53.143 26.3381L53.4067 26.3375L53.6999 26.3369H54.0251L54.4092 26.744L54.4117 26.7446ZM54.0275 26.3375H54.4117V26.7446L54.0275 26.3375ZM60.1969 34.9012H59.4286L59.4156 34.7012L59.3763 34.4953L59.3105 34.2825L59.2196 34.0621L59.1028 33.8352L58.962 33.6026L58.7991 33.3663L58.6154 33.1254L58.4131 32.882L58.1949 32.636L57.9626 32.3882L57.718 32.139L57.4641 31.888L57.2023 31.6357L56.9355 31.3821L56.665 31.1278L56.3934 30.8723L56.1229 30.6162L55.8555 30.3587L55.5937 30.1001L55.3386 29.8401L55.0927 29.5776L54.8586 29.3138L54.6379 29.0474L54.4326 28.7785L54.2445 28.5058L54.0767 28.2286L53.931 27.9457L53.8112 27.6565L53.7208 27.3602L53.6631 27.0562L53.6428 26.7466H54.4111L54.424 26.9466L54.4633 27.1524L54.5291 27.3653L54.6201 27.5857L54.7369 27.8126L54.8776 28.0451L55.0405 28.2815L55.2243 28.5224L55.4265 28.7658L55.6447 29.0117L55.8771 29.2596L56.1217 29.5087L56.3755 29.7598L56.6374 30.0121L56.9042 30.2657L57.174 30.52L57.4457 30.7755L57.7161 31.0316L57.9835 31.289L58.2453 31.5477L58.5004 31.8077L58.7463 32.0702L58.9805 32.334L59.2011 32.6004L59.4064 32.8692L59.5945 33.142L59.7623 33.4191L59.908 33.702L60.0278 33.9913L60.1182 34.2876L60.176 34.5916L60.1963 34.9012H60.1969ZM59.4286 70.0157V34.9012H60.1969V70.0157L59.8127 70.4229L59.4286 70.0157ZM60.1969 70.0157V70.4229H59.8127L60.1969 70.0157ZM49.2738 15.5404V26.7797H48.5054V15.5404L48.8896 15.1333L49.2738 15.5404ZM48.5054 15.5404V15.1333H48.8896L48.5054 15.5404ZM54.0269 15.9476H48.889V15.1326H54.0269L54.4111 15.5398L54.0269 15.947V15.9476ZM54.0269 15.1326H54.4111V15.5398L54.0269 15.1326ZM53.6428 26.744V15.5398H54.4111V26.744H53.6428ZM48.3899 14.5999L49.1281 15.2206L48.6511 15.8597L47.9129 15.239L47.7672 14.9205L48.3899 14.5999ZM47.9129 15.239L47.7679 15.1173L47.7672 14.9205L47.9129 15.239ZM48.5325 13.5798L48.5356 14.9185L47.7672 14.9205L47.7642 13.5817L47.9314 13.2447L48.5325 13.5798ZM47.7642 13.5817L47.7635 13.3664L47.9307 13.2447L47.7635 13.5817H47.7642ZM49.1066 13.3772L48.3653 13.9169L47.9314 13.2447L48.6726 12.705L48.8896 12.6336L49.1066 13.3772ZM48.6726 12.705L48.7704 12.6336H48.8896L48.6726 12.705ZM54.0275 13.4486H48.8896V12.6336H54.0275L54.2445 12.705L54.0275 13.4486ZM54.0275 12.6336H54.1468L54.2445 12.705L54.0275 12.6336ZM54.5475 13.9137L53.81 13.3772L54.2439 12.705L54.9815 13.2415L55.1487 13.5773L54.5475 13.9131V13.9137ZM54.9815 13.2415L55.1487 13.3632V13.5779L54.9815 13.2421V13.2415ZM54.3804 14.9192V13.5773H55.1487V14.9192L55.003 15.2384L54.3804 14.9192ZM55.1487 14.9192V15.1161L55.003 15.2384L55.1487 14.9192ZM53.7891 15.2206L54.5266 14.5999L55.0036 15.2384L54.266 15.859L53.7891 15.2206ZM50.0077 9.30623V13.0401H49.2393V9.30623L49.6235 8.89907L50.0077 9.30623ZM49.2393 9.30623V8.89907H49.6235L49.2393 9.30623ZM53.293 9.71339H49.6235V8.89844H53.293L53.6772 9.3056L53.293 9.71276V9.71339ZM53.293 8.89844H53.6772V9.3056L53.293 8.89844ZM52.9089 13.0401V9.30623H53.6772V13.0401H52.9089Z" fill="white"/>
</g>
<path id="Vector_2" d="M40.3139 95.102C39.8296 95.102 39.221 94.6184 38.488 93.6507C37.7551 92.6836 37.0252 91.5196 36.2991 90.1592C35.5723 88.7988 34.981 87.5515 34.5246 86.4167C34.2067 87.5369 33.8331 88.9189 33.4038 90.5627C33.1688 91.4935 32.8298 92.7592 32.387 94.3598C32.027 94.3598 31.7091 94.2543 31.4326 94.0434C31.1561 93.8324 31.0176 93.5745 31.0176 93.2688C31.0176 93.0509 31.1147 92.6506 31.3083 92.0686C32.2348 89.0428 33.0853 86.4351 33.8603 84.2455C34.6347 82.0565 35.534 79.7399 36.5576 77.2955C36.0319 77.3825 35.5785 77.5102 35.1981 77.6773C34.8177 77.8445 34.4064 78.0516 33.9636 78.2988C33.7007 78.4589 33.5349 78.5389 33.4657 78.5389C33.3686 78.5389 33.2374 78.4659 33.0711 78.3204C32.9053 78.1749 32.8224 78.051 32.8224 77.9493C34.5932 77.1493 36.1494 76.749 37.491 76.749C38.3489 76.749 39.1789 76.8945 39.9811 77.1855C40.7833 77.4766 41.4439 77.9277 41.9628 78.5383C42.4812 79.1489 42.7409 79.9127 42.7409 80.8296C42.7409 82.1239 42.2461 83.124 41.2571 83.8299C40.2681 84.5352 39.1888 85.001 38.0204 85.2265C36.8514 85.4515 35.8451 85.5646 35.0008 85.5646C35.1394 85.8264 35.2668 86.0666 35.3849 86.2845C35.5024 86.5031 35.6094 86.6988 35.7059 86.8735C36.3009 87.9937 36.823 88.9176 37.2733 89.6445C37.7223 90.372 38.2827 91.1396 38.9538 91.9466C39.6242 92.7535 40.4308 93.5649 41.3715 94.3795C41.2887 94.5689 41.1396 94.7366 40.925 94.8815C40.711 95.027 40.5062 95.1001 40.3133 95.1001L40.3139 95.102ZM34.8561 85.217C35.949 85.144 36.9869 84.9254 37.9685 84.5619C38.9507 84.1985 39.7597 83.6673 40.3968 82.969C41.0332 82.27 41.3511 81.4052 41.3511 80.3721C41.3511 79.2665 40.9949 78.4627 40.2817 77.9614C39.5698 77.4594 38.6878 77.2084 37.6363 77.2084C36.8063 78.9545 35.8797 81.6238 34.8555 85.217H34.8561ZM43.4887 92.6798C43.2951 92.6798 43.1362 92.629 43.0112 92.5273C42.8869 92.4257 42.8244 92.2801 42.8244 92.0908C42.8244 91.8582 42.9556 91.6511 43.2184 91.4687C43.4813 91.287 43.751 91.1962 44.0275 91.1962C44.3868 91.1962 44.5668 91.3709 44.5668 91.7197C44.5668 91.9383 44.453 92.1524 44.2248 92.3634C43.9965 92.5743 43.751 92.6798 43.4881 92.6798H43.4887ZM48.5315 93.1595C47.9643 93.1595 47.5493 92.9778 47.2858 92.6144C47.0229 92.2509 46.8918 91.7706 46.8918 91.1739C46.8918 90.5773 47.0093 89.952 47.245 89.2976C47.48 88.6431 47.7843 88.0973 48.1579 87.6608C48.5315 87.2243 48.9051 87.0057 49.2787 87.0057C49.403 87.0057 49.5483 87.0425 49.7141 87.115C49.5477 87.2605 49.3479 87.5801 49.1123 88.0751C48.8772 88.57 48.6725 89.0968 48.5 89.6566C48.3268 90.217 48.2408 90.6713 48.2408 91.0208C48.2408 91.85 48.4894 92.2649 48.988 92.2649C49.2787 92.2649 49.6244 92.1048 50.0258 91.7845C50.4273 91.4643 50.8212 91.0424 51.2084 90.5188C50.8212 90.184 50.52 89.7481 50.306 89.2099C50.0914 88.6717 49.9844 88.1113 49.9844 87.5299C49.9844 86.7731 50.1681 86.1256 50.5343 85.5875C50.901 85.0493 51.3958 84.7799 52.0181 84.7799C52.5438 84.7799 52.9137 84.9285 53.1283 85.2272C53.3429 85.5252 53.4499 85.9363 53.4499 86.4599C53.4499 87.0127 53.3219 87.6347 53.0658 88.3254C52.8098 89.0161 52.4745 89.689 52.0595 90.3434C52.3088 90.4889 52.5716 90.562 52.8481 90.562C53.2495 90.562 53.6646 90.4349 54.0938 90.1801C54.5224 89.926 54.8478 89.5295 55.0692 88.9913L55.3179 89.2093C55.055 89.8497 54.6814 90.3218 54.1971 90.6275C53.7128 90.9331 53.2149 91.0856 52.7028 91.0856C52.3292 91.0856 51.997 91.0125 51.7063 90.867C51.2084 91.5507 50.6796 92.1041 50.1192 92.526C49.5589 92.948 49.03 93.1589 48.5321 93.1589L48.5315 93.1595ZM51.5814 89.952C51.9408 89.3846 52.2315 88.8064 52.4535 88.2174C52.6743 87.6277 52.7857 87.0864 52.7857 86.5914C52.7857 86.1841 52.7269 85.8785 52.6088 85.6751C52.4912 85.4718 52.3428 85.3695 52.1628 85.3695C51.9692 85.3695 51.7719 85.468 51.5715 85.6643C51.3705 85.8607 51.2047 86.1295 51.0736 86.4713C50.9419 86.8132 50.8763 87.188 50.8763 87.5953C50.8763 88.0465 50.9351 88.4792 51.0526 88.8935C51.1701 89.3077 51.347 89.661 51.582 89.952H51.5814ZM56.3959 93.1163C55.8288 93.1163 55.41 92.9124 55.1403 92.5057C54.8701 92.0984 54.7358 91.5526 54.7358 90.8689C54.7358 89.56 55.1645 87.7815 56.023 85.5341C56.8802 83.2867 57.8383 81.261 58.8972 79.4571C59.9555 77.6532 60.7194 76.7509 61.1901 76.7509C61.3837 76.7509 61.5463 76.9288 61.6775 77.2853C61.8086 77.6418 61.8748 78.002 61.8748 78.3655C61.8748 79.0346 61.6156 80.0201 61.0967 81.322C60.5777 82.6239 59.8967 83.9443 59.0525 85.2825C58.2082 86.6213 57.3089 87.7046 56.3551 88.5338C56.1751 89.3776 56.0848 90.1122 56.0848 90.738C56.0848 91.8582 56.3891 92.418 56.9978 92.418C57.5099 92.418 58.0319 92.0768 58.5645 91.3931C59.097 90.7094 59.5708 89.8872 59.9858 88.9271L60.2975 89.1019C59.1075 91.7782 57.8074 93.117 56.3966 93.117L56.3959 93.1163ZM56.5413 87.7923C57.3021 86.9917 58.0455 85.9846 58.7723 84.7697C59.4984 83.5548 60.0897 82.3914 60.5462 81.2788C61.0026 80.1656 61.2309 79.3624 61.2309 78.8675C61.2309 78.6343 61.1826 78.5186 61.0855 78.5186C60.8919 78.5186 60.4942 79.0168 59.8924 80.0131C59.2906 81.0094 58.6715 82.2281 58.035 83.6685C57.3986 85.1084 56.9006 86.4834 56.5407 87.7923H56.5413ZM63.5553 83.035C63.3066 83.035 63.1025 82.9734 62.9429 82.8495C62.784 82.7262 62.7042 82.5477 62.7042 82.3151C62.7042 82.0241 62.8706 81.7617 63.2021 81.5298C63.5342 81.2972 63.8732 81.181 64.2189 81.181C64.6754 81.181 64.9036 81.4065 64.9036 81.8576C64.9036 82.134 64.762 82.3996 64.4787 82.6538C64.1954 82.9086 63.8874 83.0357 63.5553 83.0357V83.035ZM61.0651 93.0293C60.553 93.0293 60.159 92.8584 59.8825 92.5165C59.6054 92.1747 59.4675 91.735 59.4675 91.1962C59.4675 90.6287 59.6234 89.8434 59.9339 88.8394C60.245 87.8355 60.6328 86.9555 61.096 86.1987C61.5593 85.442 62.0127 85.0639 62.4549 85.0639C62.5799 85.0639 62.6869 85.1071 62.7766 85.1948C62.8662 85.2818 62.912 85.3987 62.912 85.5436C62.912 85.7476 62.6906 86.2349 62.2477 87.0057C61.7913 87.8063 61.4282 88.5224 61.1579 89.1552C60.8882 89.7881 60.7534 90.3879 60.7534 90.9553C60.7534 91.4643 60.8332 91.8099 60.9921 91.9923C61.1511 92.174 61.4109 92.2649 61.7702 92.2649C62.8495 92.2649 63.9146 91.1517 64.9661 88.9265L65.1529 89.1444C64.7657 90.367 64.1954 91.3194 63.4408 92.0031C62.6869 92.6868 61.8952 93.0287 61.0651 93.0287V93.0293ZM66.004 93.1602C65.4368 93.1602 65.0218 92.9785 64.7583 92.615C64.4954 92.2516 64.3643 91.7712 64.3643 91.1745C64.3643 90.5779 64.4818 89.9527 64.7175 89.2982C64.9525 88.6437 65.2568 88.0979 65.6304 87.6614C66.004 87.2249 66.3776 87.0063 66.7511 87.0063C66.8755 87.0063 67.0208 87.0432 67.1866 87.1156C67.0202 87.2611 66.8204 87.5807 66.5848 88.0757C66.3497 88.5707 66.1456 89.0974 65.9724 89.6572C65.7999 90.2176 65.7133 90.6719 65.7133 91.0214C65.7133 91.8506 65.9625 92.2655 66.4604 92.2655C66.7511 92.2655 67.0969 92.1054 67.4977 91.7852C67.8991 91.4649 68.2931 91.043 68.6803 90.5194C68.2931 90.1846 67.9925 89.7487 67.7779 89.2105C67.5639 88.6723 67.4562 88.1119 67.4562 87.5305C67.4562 86.7738 67.6399 86.1263 68.0061 85.5881C68.3729 85.0499 68.8671 84.7805 69.4899 84.7805C70.0157 84.7805 70.3855 84.9292 70.6002 85.2278C70.8142 85.5258 70.9218 85.9369 70.9218 86.4605C70.9218 87.0133 70.7938 87.6354 70.5377 88.326C70.2816 89.0167 69.9464 89.6896 69.5314 90.3441C69.78 90.4896 70.0429 90.5627 70.32 90.5627C70.7214 90.5627 71.1364 90.4356 71.5651 90.1808C71.9937 89.9266 72.319 89.5301 72.5405 88.9919L72.7891 89.2099C72.5262 89.8504 72.1526 90.3225 71.6684 90.6281C71.1841 90.9337 70.6861 91.0862 70.174 91.0862C69.8004 91.0862 69.4683 91.0132 69.1776 90.8676C68.6797 91.5513 68.1508 92.1048 67.5905 92.5267C67.0301 92.9486 66.5013 93.1595 66.0034 93.1595L66.004 93.1602ZM69.0545 89.9527C69.4139 89.3853 69.7046 88.807 69.926 88.218C70.1468 87.6284 70.2581 87.087 70.2581 86.592C70.2581 86.1847 70.1994 85.8791 70.0819 85.6758C69.9643 85.4725 69.8159 85.3702 69.6359 85.3702C69.4423 85.3702 69.245 85.4686 69.0446 85.665C68.8442 85.8613 68.6778 86.1301 68.5467 86.4719C68.415 86.8138 68.3494 87.1887 68.3494 87.596C68.3494 88.0471 68.4081 88.4798 68.5257 88.8941C68.6432 89.3084 68.8201 89.6617 69.0551 89.9527H69.0545Z" fill="white"/>
</g>
</g>
</g>
</svg>
