<svg width="24" height="20" viewBox="0 0 24 20" fill="none" xmlns="http://www.w3.org/2000/svg">
<path d="M0 18.7002C0 18.4241 0.223858 18.2002 0.5 18.2002H23.5C23.7761 18.2002 24 18.4241 24 18.7002C24 18.9763 23.7761 19.2002 23.5 19.2002H0.5C0.223857 19.2002 0 18.9763 0 18.7002Z" fill="#688800"/>
<path d="M0 7.1001C0 6.82396 0.223858 6.6001 0.5 6.6001H23.5C23.7761 6.6001 24 6.82396 24 7.1001C24 7.37624 23.7761 7.6001 23.5 7.6001H0.5C0.223857 7.6001 0 7.37624 0 7.1001Z" fill="#688800"/>
<path d="M0 12.8999C0 12.6238 0.223858 12.3999 0.5 12.3999H23.5C23.7761 12.3999 24 12.6238 24 12.8999C24 13.176 23.7761 13.3999 23.5 13.3999H0.5C0.223857 13.3999 0 13.176 0 12.8999Z" fill="#688800"/>
<path d="M0 1.2998C0 1.02366 0.223858 0.799805 0.5 0.799805H23.5C23.7761 0.799805 24 1.02366 24 1.2998C24 1.57595 23.7761 1.7998 23.5 1.7998H0.5C0.223857 1.7998 0 1.57595 0 1.2998Z" fill="#688800"/>
</svg>
