<svg width="30" height="24" viewBox="0 0 30 24" fill="none" xmlns="http://www.w3.org/2000/svg">
<path d="M0 22.875C0 22.5298 0.279822 22.25 0.625 22.25H29.375C29.7202 22.25 30 22.5298 30 22.875C30 23.2202 29.7202 23.5 29.375 23.5H0.624999C0.279821 23.5 0 23.2202 0 22.875Z" fill="#688800"/>
<path d="M0 8.375C0 8.02982 0.279822 7.75 0.625 7.75H29.375C29.7202 7.75 30 8.02982 30 8.375C30 8.72018 29.7202 9 29.375 9H0.624999C0.279821 9 0 8.72018 0 8.375Z" fill="#688800"/>
<path d="M0 15.625C0 15.2798 0.279822 15 0.625 15H29.375C29.7202 15 30 15.2798 30 15.625C30 15.9702 29.7202 16.25 29.375 16.25H0.624999C0.279821 16.25 0 15.9702 0 15.625Z" fill="#688800"/>
<path d="M0 1.125C0 0.779822 0.279822 0.5 0.625 0.5H29.375C29.7202 0.5 30 0.779822 30 1.125V1.125C30 1.47018 29.7202 1.75 29.375 1.75H0.624999C0.279821 1.75 0 1.47018 0 1.125V1.125Z" fill="#688800"/>
</svg>
