<svg width="32" height="32" viewBox="0 0 32 32" fill="none" xmlns="http://www.w3.org/2000/svg">
<g clip-path="url(#clip0_1_299)">
<path d="M30.533 11.3621H27.385L25.7937 5.12161C25.5938 4.33748 24.7931 3.86242 24.0092 4.06224L20.3811 4.98736C20.1364 5.04973 19.9886 5.29873 20.051 5.54342C20.1134 5.78811 20.3624 5.93579 20.6071 5.87354L24.2351 4.94842C24.5308 4.87323 24.8322 5.05217 24.9076 5.34761L25.0839 6.03892L1.10859 12.1524L0.932345 11.4612C0.895845 11.318 0.917283 11.1692 0.992658 11.0422C1.0681 10.9152 1.18847 10.8252 1.33159 10.7887L17.8228 6.58348C18.0674 6.52111 18.2153 6.27211 18.1529 6.02742C18.0904 5.78273 17.8416 5.63504 17.5968 5.69729L1.10559 9.90247C0.321471 10.1024 -0.153778 10.903 0.0461595 11.687L3.4279 24.949C3.59697 25.6119 4.19528 26.0541 4.85009 26.0541C4.96971 26.0541 5.09134 26.0393 5.21246 26.0084L5.42896 25.9532V26.5159C5.42896 27.3251 6.08727 27.9834 6.89646 27.9834H30.533C31.3422 27.9834 32.0005 27.3251 32.0005 26.5159V12.8296C32.0005 12.0204 31.3422 11.3621 30.533 11.3621ZM5.42902 25.0094L4.98659 25.1223C4.69115 25.1976 4.38946 25.0185 4.31409 24.7231L2.24409 16.6053L5.42902 15.7932V25.0094ZM5.42902 12.8295V14.8495L2.01816 15.7192L1.33459 13.0385L5.75252 11.9119C5.5504 12.1635 5.42902 12.4825 5.42902 12.8295ZM26.4413 11.362H22.8065L26.2194 10.4918L26.4413 11.362ZM25.3099 6.92492L25.9934 9.60566L19.1055 11.3621H7.90896L25.3099 6.92492ZM30.533 27.0689H6.89652C6.59158 27.0689 6.34346 26.8208 6.34346 26.5159V25.3648V12.8296C6.34346 12.5247 6.59152 12.2766 6.89652 12.2766H30.533C30.8379 12.2766 31.086 12.5247 31.086 12.8296V26.5159C31.086 26.8208 30.8379 27.0689 30.533 27.0689Z" fill="#688800"/>
<path d="M18.2088 22.6182H8.24582C7.99332 22.6182 7.78857 22.8228 7.78857 23.0752C7.78857 23.3277 7.99332 23.5323 8.24582 23.5323H18.2088C18.4613 23.5323 18.666 23.3277 18.666 23.0752C18.666 22.8228 18.4614 22.6182 18.2088 22.6182Z" fill="#688800"/>
<path d="M25.8282 14.5781C25.1715 14.5781 24.5638 14.7901 24.0684 15.1484C23.5579 14.7786 22.9456 14.5781 22.3066 14.5781C20.6468 14.5781 19.2964 15.9285 19.2964 17.5884C19.2965 19.2482 20.6469 20.5986 22.3067 20.5986C22.9457 20.5986 23.5579 20.3981 24.0684 20.0282C24.5638 20.3866 25.1716 20.5986 25.8282 20.5986C27.4881 20.5986 28.8384 19.2482 28.8384 17.5884C28.8384 15.9285 27.4881 14.5781 25.8282 14.5781ZM22.8217 17.7311C22.8223 17.7428 22.8231 17.7545 22.8238 17.7662C22.8259 17.8046 22.8289 17.8427 22.8325 17.8808C22.8334 17.8897 22.8342 17.8986 22.8351 17.9074C22.8909 18.4422 23.0859 18.9445 23.4041 19.3736C23.0766 19.5757 22.6988 19.684 22.3067 19.684C21.1511 19.684 20.2109 18.7439 20.2109 17.5883C20.211 16.4328 21.1511 15.4926 22.3067 15.4926C22.6988 15.4926 23.0766 15.6009 23.4041 15.8031C23.086 16.2321 22.8909 16.7344 22.8351 17.2692C22.8342 17.2781 22.8334 17.2869 22.8325 17.2957C22.8289 17.3338 22.826 17.372 22.8238 17.4103C22.8231 17.4221 22.8223 17.4337 22.8217 17.4454C22.8195 17.4929 22.8181 17.5404 22.8181 17.5882C22.8181 17.6361 22.8195 17.6836 22.8217 17.7311ZM25.8284 19.6841C25.2562 19.6841 24.7371 19.4534 24.3585 19.0804C24.3507 19.0727 24.343 19.0649 24.3353 19.0571C24.3179 19.0394 24.3006 19.0214 24.2838 19.0031C24.2791 18.998 24.2746 18.9929 24.2699 18.9877C24.2502 18.9657 24.2307 18.9435 24.2119 18.9207C24.2118 18.9206 24.2117 18.9204 24.2116 18.9203C23.9125 18.5579 23.7326 18.0937 23.7326 17.5882C23.7326 17.0829 23.9125 16.6186 24.2116 16.2562C24.2117 16.2561 24.2118 16.2561 24.2118 16.2559C24.2307 16.2331 24.2503 16.2108 24.2701 16.1887C24.2746 16.1837 24.2791 16.1786 24.2838 16.1736C24.3006 16.1552 24.3179 16.1372 24.3354 16.1194C24.3431 16.1117 24.3507 16.104 24.3584 16.0964C24.737 15.7234 25.2562 15.4926 25.8284 15.4926C26.9839 15.4926 27.9241 16.4327 27.9241 17.5884C27.9241 18.7439 26.9839 19.6841 25.8284 19.6841Z" fill="#688800"/>
<path d="M11.5042 14.875H9.49882C8.55576 14.875 7.78857 15.6422 7.78857 16.5853V18.5906C7.78851 19.5337 8.55576 20.3009 9.49882 20.3009H11.5042C12.4472 20.3009 13.2144 19.5337 13.2144 18.5906V16.5853C13.2144 15.6423 12.4473 14.875 11.5042 14.875ZM12.2999 17.8336H11.3244C11.0719 17.8336 10.8672 18.0383 10.8672 18.2908C10.8672 18.5434 11.0719 18.7481 11.3244 18.7481H12.2841C12.2108 19.1117 11.889 19.3864 11.5041 19.3864H9.49876C9.11382 19.3864 8.79201 19.1118 8.71876 18.7481H9.67845C9.93095 18.7481 10.1357 18.5434 10.1357 18.2908C10.1357 18.0383 9.93101 17.8336 9.67845 17.8336H8.70301V17.4373H9.67845C9.93095 17.4373 10.1357 17.2326 10.1357 16.9801C10.1357 16.7276 9.93101 16.5228 9.67845 16.5228H8.70614C8.73814 16.1132 9.08101 15.7894 9.49876 15.7894H11.5041C11.9219 15.7894 12.2647 16.1132 12.2968 16.5228H11.3244C11.0719 16.5228 10.8672 16.7275 10.8672 16.9801C10.8672 17.2326 11.0719 17.4373 11.3244 17.4373H12.2999V17.8336Z" fill="#688800"/>
<path d="M28.9444 24.6309H13.0237C12.7712 24.6309 12.5664 24.8355 12.5664 25.0879C12.5664 25.3404 12.7711 25.545 13.0237 25.545H28.9444C29.1969 25.545 29.4017 25.3404 29.4017 25.0879C29.4017 24.8355 29.197 24.6309 28.9444 24.6309Z" fill="#688800"/>
<path d="M10.1091 24.6309H8.24582C7.99332 24.6309 7.78857 24.8355 7.78857 25.0879C7.78857 25.3404 7.99326 25.545 8.24582 25.545H10.1091C10.3616 25.545 10.5664 25.3404 10.5664 25.0879C10.5664 24.8355 10.3616 24.6309 10.1091 24.6309Z" fill="#688800"/>
</g>
<defs>
<clipPath id="clip0_1_299">
<rect width="32" height="32" fill="white"/>
</clipPath>
</defs>
</svg>
