<svg width="32" height="32" viewBox="0 0 32 32" fill="none" xmlns="http://www.w3.org/2000/svg">
<g clip-path="url(#clip0_1_293)">
<path d="M29.923 1.02637H27.8695C27.61 1.02637 27.3998 1.23657 27.3998 1.496C27.3998 1.75542 27.61 1.96563 27.8695 1.96563H29.923C30.0426 1.96563 30.1399 2.06294 30.1399 2.18254V14.7912C30.1399 14.9108 30.0426 15.0081 29.923 15.0081H10.7069V14.0689H23.3901C23.6495 14.0689 23.8597 13.8587 23.8597 13.5993C23.8597 13.3399 23.6495 13.1297 23.3901 13.1297H10.7069V11.1375C10.7069 9.87844 9.68255 8.85401 8.42337 8.85401C7.16432 8.85401 6.13989 9.87837 6.13989 11.1375V13.1297H5.05341C4.88466 12.4892 4.37921 11.9837 3.73869 11.8149V8.47812C3.73869 8.21869 3.52849 8.00848 3.26906 8.00848C3.00964 8.00848 2.79943 8.21869 2.79943 8.47812V12.224C2.79943 12.4835 3.00964 12.6937 3.26906 12.6937C3.76844 12.6937 4.1747 13.0999 4.1747 13.5993C4.1747 13.8587 4.38491 14.0689 4.64433 14.0689H6.13995V15.0081H2.07707C1.95747 15.0081 1.86016 14.9108 1.86016 14.7912V2.18248C1.86016 2.06288 1.95747 1.96557 2.07707 1.96557H8.56532V2.90483H4.64433C4.38491 2.90483 4.1747 3.11504 4.1747 3.37447C4.1747 3.87384 3.76844 4.2801 3.26906 4.2801C3.00964 4.2801 2.79943 4.49031 2.79943 4.74974V6.47661C2.79943 6.73603 3.00964 6.94624 3.26906 6.94624C3.52849 6.94624 3.73869 6.73603 3.73869 6.47661V5.15888C4.37921 4.99013 4.88466 4.48468 5.05341 3.84416H8.56532V4.02519C8.56532 5.15187 9.48198 6.06853 10.6087 6.06853C11.1314 6.06853 11.6086 5.87109 11.9703 5.54711C12.3198 6.17391 12.9891 6.59902 13.7563 6.59902C14.5233 6.59902 15.1928 6.17391 15.5421 5.54711C15.9039 5.87103 16.3811 6.06853 16.9037 6.06853C17.7041 6.06853 18.3981 5.60572 18.7332 4.9339C19.0893 5.23527 19.5493 5.41755 20.0512 5.41755C21.0162 5.41755 21.8265 4.74504 22.0394 3.84422H26.9467C27.1155 4.48474 27.6209 4.99019 28.2615 5.15894V11.815C27.6209 11.9838 27.1155 12.4892 26.9467 13.1297H25.3915C25.1321 13.1297 24.9219 13.3399 24.9219 13.5994C24.9219 13.8588 25.1321 14.069 25.3915 14.069H27.3558C27.6152 14.069 27.8254 13.8588 27.8254 13.5994C27.8254 13.1 28.2317 12.6937 28.7311 12.6937C28.9905 12.6937 29.2007 12.4835 29.2007 12.2241V4.7498C29.2007 4.49037 28.9905 4.28017 28.7311 4.28017C28.2317 4.28017 27.8254 3.8739 27.8254 3.37453C27.8254 3.1151 27.6152 2.9049 27.3558 2.9049H22.0946V1.96563H25.8681C26.1276 1.96563 26.3378 1.75542 26.3378 1.496C26.3378 1.23657 26.1276 1.02637 25.8681 1.02637H22.0073C21.7964 0.429181 21.2267 0 20.5582 0H19.544C19.13 0 18.754 0.164935 18.4774 0.432187C18.2009 0.164935 17.8248 0 17.4108 0H16.3966C15.9826 0 15.6065 0.164935 15.33 0.432187C15.0534 0.164935 14.6774 0 14.2633 0H13.2491C12.8351 0 12.459 0.164935 12.1825 0.432187C11.9059 0.164935 11.5299 0 11.1159 0H10.1016C9.43327 0 8.86351 0.429181 8.65274 1.02637H2.07707C1.43956 1.02637 0.920898 1.54503 0.920898 2.18254V14.7912C0.920898 15.4287 1.43956 15.9474 2.07707 15.9474H6.13995V19.4308C6.13995 20.4326 6.53006 21.3745 7.23846 22.0829L9.24942 24.0938V31.5304C9.24942 31.7898 9.45963 32 9.71906 32C9.97848 32 10.1887 31.7898 10.1887 31.5304V23.8993C10.1887 23.7748 10.1392 23.6554 10.0512 23.5672L7.90264 21.4187C7.37164 20.8877 7.07922 20.1817 7.07922 19.4307V11.1374C7.07922 10.3962 7.68223 9.79321 8.42343 9.79321C9.16464 9.79321 9.76771 10.3962 9.76771 11.1374V15.4778C9.76771 15.7372 9.97792 15.9474 10.2373 15.9474C12.3486 15.9474 14.0662 17.6651 14.0662 19.7763V20.0772C14.0662 20.3366 14.2764 20.5468 14.5359 20.5468C14.7953 20.5468 15.0055 20.3366 15.0055 20.0772V19.7763C15.0055 18.2092 14.245 16.817 13.0743 15.9473H22.9204V16.19C22.9204 17.0238 22.6636 17.8229 22.1779 18.5006L20.8261 20.3866C20.7689 20.4663 20.7382 20.5621 20.7382 20.6602V31.5303C20.7382 31.7897 20.9484 31.9999 21.2078 31.9999C21.4673 31.9999 21.6775 31.7897 21.6775 31.5303V20.8112L22.9413 19.0479C23.5422 18.2096 23.8597 17.2214 23.8597 16.19V15.9474H29.923C30.5606 15.9474 31.0793 15.4287 31.0793 14.7912V2.18248C31.0792 1.54503 30.5605 1.02637 29.923 1.02637ZM19.544 0.939265H20.5582C20.8874 0.939265 21.1552 1.20708 21.1552 1.53626V3.37409C21.1552 3.98292 20.6599 4.47823 20.0511 4.47823C19.4423 4.47823 18.947 3.98292 18.947 3.37409V1.53626C18.9471 1.20708 19.2148 0.939265 19.544 0.939265ZM16.3966 0.939265H17.4108C17.74 0.939265 18.0078 1.20708 18.0078 1.53626V4.02513C18.0078 4.63396 17.5125 5.1292 16.9037 5.1292C16.2948 5.1292 15.7995 4.63396 15.7995 4.02513V1.53626C15.7995 1.20708 16.0674 0.939265 16.3966 0.939265ZM13.2491 0.939265H14.2633C14.5925 0.939265 14.8603 1.20708 14.8603 1.53626V4.55568C14.8603 5.16452 14.365 5.65976 13.7562 5.65976H13.7561C13.1473 5.65976 12.6521 5.16452 12.6521 4.55568V1.53626C12.6521 1.20708 12.9199 0.939265 13.2491 0.939265ZM9.50459 1.53626C9.50459 1.20708 9.7724 0.939265 10.1016 0.939265H11.1158C11.445 0.939265 11.7128 1.20708 11.7128 1.53626V4.02513C11.7128 4.63396 11.2175 5.1292 10.6087 5.1292C9.99983 5.1292 9.50453 4.63396 9.50453 4.02513V1.53626H9.50459Z" fill="#688800"/>
<path d="M12.4569 7.16559C12.2012 7.12614 11.9608 7.30204 11.9213 7.55839C11.8893 7.7666 11.873 7.97943 11.873 8.19089C11.873 10.4685 13.726 12.3215 16.0036 12.3215C18.2812 12.3215 20.1342 10.4685 20.1342 8.19089C20.1342 7.80467 20.0798 7.41988 19.9725 7.04699C19.9007 6.79765 19.6399 6.65357 19.3913 6.72558C19.1421 6.79734 18.9981 7.05751 19.0699 7.30673C19.1529 7.59509 19.1949 7.89252 19.1949 8.19083C19.1949 9.95058 17.7634 11.3821 16.0036 11.3821C14.2439 11.3821 12.8123 9.95058 12.8123 8.19083C12.8123 8.02702 12.8248 7.86228 12.8497 7.7011C12.8892 7.4448 12.7133 7.20504 12.4569 7.16559Z" fill="#688800"/>
</g>
<defs>
<clipPath id="clip0_1_293">
<rect width="32" height="32" fill="white"/>
</clipPath>
</defs>
</svg>
