<svg width="32" height="32" viewBox="0 0 32 32" fill="none" xmlns="http://www.w3.org/2000/svg">
<path d="M21.4545 6.94701H20.5508C20.7102 6.66926 20.8019 6.34788 20.8019 6.00532V3.12963C20.8019 2.08295 19.9504 1.23145 18.9037 1.23145H1.89819C0.8515 1.23182 0 2.08332 0 3.12995V6.00563C0 7.05232 0.8515 7.90382 1.89819 7.90382H2.80175C2.64237 8.18157 2.55063 8.50294 2.55063 8.84551V11.7212C2.55063 12.0638 2.64231 12.3851 2.80175 12.6629H1.89819C0.8515 12.6628 0 13.5143 0 14.5609V17.4366C0 18.2643 0.532687 18.9695 1.273 19.2285C1.07325 19.529 0.9565 19.8893 0.9565 20.2764V23.1521C0.9565 23.5393 1.07325 23.8996 1.273 24.2001C0.532687 24.4591 0 25.1643 0 25.9919V28.8676C0 29.9143 0.8515 30.7658 1.89819 30.7658H16.4806C16.7448 30.7658 16.9589 30.5516 16.9589 30.2875C16.9589 30.0234 16.7448 29.8093 16.4806 29.8093H1.89819C1.37888 29.8093 0.9565 29.3868 0.9565 28.8676V25.9919C0.9565 25.4727 1.37894 25.0503 1.89819 25.0503H2.85469H5.39319H11.1459C11.4101 25.0503 11.6242 24.8361 11.6242 24.572C11.6242 24.3079 11.4101 24.0938 11.1459 24.0938H5.39313H2.85469C2.33537 24.0938 1.913 23.6713 1.913 23.1521V20.2764C1.913 19.7571 2.33544 19.3347 2.85469 19.3347H10.2745C10.5387 19.3347 10.7528 19.1206 10.7528 18.8564C10.7528 18.5923 10.5387 18.3782 10.2745 18.3782H1.89819C1.37888 18.3782 0.9565 17.9558 0.9565 17.4365V14.5608C0.9565 14.0416 1.37894 13.6191 1.89819 13.6191H4.44881H8.27669H12.9844C13.2486 13.6191 13.4627 13.405 13.4627 13.1409C13.4627 12.8768 13.2486 12.6626 12.9844 12.6626H8.27669H4.44881C3.9295 12.6626 3.50712 12.2402 3.50712 11.7209V8.84526C3.50712 8.32601 3.92956 7.90357 4.44881 7.90357H18.9038H21.4545C21.9738 7.90357 22.3962 8.32601 22.3962 8.84526V9.20194C22.3962 9.46607 22.6103 9.68019 22.8744 9.68019C23.1386 9.68019 23.3527 9.46607 23.3527 9.20194V8.84526C23.3527 7.79851 22.5012 6.94701 21.4545 6.94701ZM19.8455 6.00563C19.8455 6.52488 19.4231 6.94732 18.9038 6.94732H4.44881H1.89819C1.37888 6.94726 0.9565 6.52482 0.9565 6.00563V3.12995C0.9565 2.6107 1.37894 2.18826 1.89819 2.18826H18.9038C19.4231 2.18826 19.8455 2.6107 19.8455 3.12995V6.00563Z" fill="#688800"/>
<path d="M27.2704 11.6458C27.0492 11.5017 26.7528 11.5641 26.6086 11.7854C26.4644 12.0067 26.5269 12.303 26.7481 12.4472C29.4376 14.1998 31.0433 17.1601 31.0433 20.3658C31.0433 25.5735 26.8064 29.8103 21.5988 29.8103C16.391 29.8103 12.1542 25.5735 12.1542 20.3658C12.1542 15.1581 16.391 10.9213 21.5988 10.9213C22.9661 10.9213 24.2848 11.2069 25.5182 11.7703C25.7586 11.8801 26.0422 11.7742 26.1519 11.534C26.2616 11.2937 26.1558 11.01 25.9156 10.9003C24.5566 10.2795 23.1042 9.96484 21.5988 9.96484C15.8637 9.96484 11.1978 14.6307 11.1978 20.3658C11.1978 26.1008 15.8637 30.7667 21.5988 30.7667C27.3338 30.7667 31.9998 26.1009 31.9998 20.3658C31.9998 16.8355 30.2318 13.5757 27.2704 11.6458Z" fill="#688800"/>
<path d="M26.8983 15.0663C25.4827 13.6507 23.6006 12.8711 21.5988 12.8711C19.5969 12.8711 17.7148 13.6507 16.2992 15.0663C14.4069 16.9585 13.6653 19.7406 14.3639 22.3268C14.4328 22.5818 14.6951 22.7327 14.9503 22.6638C15.2052 22.595 15.3561 22.3325 15.2872 22.0775C14.6777 19.8208 15.3246 17.3935 16.9756 15.7426C18.2105 14.5077 19.8524 13.8275 21.5988 13.8275C23.3453 13.8275 24.9872 14.5077 26.2221 15.7426C28.7714 18.2919 28.7714 22.4398 26.2221 24.9892C23.6728 27.5384 19.5249 27.5384 16.9756 24.9892C16.5173 24.5309 16.1318 24.0118 15.8295 23.4462C15.705 23.2133 15.4154 23.1253 15.1823 23.2499C14.9494 23.3743 14.8615 23.6642 14.986 23.8971C15.3327 24.5457 15.7745 25.1407 16.2993 25.6654C17.7604 27.1265 19.6796 27.8571 21.5989 27.8571C23.5181 27.8571 25.4373 27.1266 26.8985 25.6654C29.8205 22.7433 29.8205 17.9885 26.8983 15.0663Z" fill="#688800"/>
<path d="M22.0775 19.9265V17.2929C22.7748 17.4554 23.285 17.9632 23.285 18.5634C23.285 18.8275 23.4991 19.0416 23.7633 19.0416C24.0275 19.0416 24.2415 18.8275 24.2415 18.5634C24.2415 17.4464 23.3069 16.515 22.0776 16.32V16.0388C22.0776 15.7747 21.8635 15.5605 21.5993 15.5605C21.3352 15.5605 21.1211 15.7747 21.1211 16.0388V16.32C19.8918 16.515 18.9571 17.4464 18.9571 18.5634C18.9571 19.6803 19.8918 20.6117 21.1211 20.8067V23.4403C20.4238 23.2778 19.9135 22.77 19.9135 22.1698C19.9135 21.9057 19.6995 21.6916 19.4353 21.6916C19.1711 21.6916 18.957 21.9057 18.957 22.1698C18.957 23.2868 19.8917 24.2182 21.121 24.4132V24.6944C21.121 24.9585 21.3351 25.1727 21.5993 25.1727C21.8635 25.1727 22.0775 24.9585 22.0775 24.6944V24.4132C23.3068 24.2182 24.2415 23.2868 24.2415 22.1698C24.2415 21.0529 23.3068 20.1215 22.0775 19.9265ZM21.1211 19.8338C20.4238 19.6714 19.9135 19.1635 19.9135 18.5634C19.9135 17.9632 20.4238 17.4554 21.1211 17.2929V19.8338ZM22.0775 23.4403V20.8995C22.7747 21.0619 23.285 21.5699 23.285 22.1699C23.285 22.7699 22.7747 23.2778 22.0775 23.4403Z" fill="#688800"/>
</svg>
